<svg width="current" height="current" viewBox="0 0 48 48" fill="none" xmlns="http://www.w3.org/2000/svg">
<path fill-rule="evenodd" clip-rule="evenodd" d="M13.2382 15.5994C12.6758 15.0371 12.6758 14.1253 13.2382 13.5629C13.8005 13.0006 14.7123 13.0006 15.2746 13.5629L24.1364 22.4247L32.9982 13.5629C33.5605 13.0006 34.4723 13.0006 35.0346 13.5629C35.597 14.1253 35.597 15.0371 35.0346 15.5994L26.1729 24.4612L34.5017 32.79C35.0641 33.3524 35.0641 34.2641 34.5017 34.8265C33.9394 35.3888 33.0276 35.3888 32.4652 34.8265L24.1364 26.4976L15.8076 34.8265C15.2452 35.3888 14.3334 35.3888 13.7711 34.8265C13.2087 34.2641 13.2087 33.3524 13.7711 32.79L22.0999 24.4612L13.2382 15.5994Z" fill="current"/>
</svg>
