<svg width="32" height="32" viewBox="0 0 32 32" fill="none" xmlns="http://www.w3.org/2000/svg">
<path d="M16 4C22.6274 4 28 9.37258 28 16V16C28 22.6274 22.6274 28 16 28V28C9.37258 28 4 22.6274 4 16V16C4 9.37258 9.37258 4 16 4V4Z" fill="#EBDDBF"/>
<path fill-rule="evenodd" clip-rule="evenodd" d="M16.5091 19.8144C16.2279 20.0955 15.7721 20.0955 15.4909 19.8144L10.0603 14.3838C9.77913 14.1026 9.77913 13.6467 10.0603 13.3656C10.3415 13.0844 10.7974 13.0844 11.0785 13.3656L16 18.287L20.9215 13.3656C21.2026 13.0844 21.6585 13.0844 21.9397 13.3656C22.2209 13.6467 22.2209 14.1026 21.9397 14.3838L16.5091 19.8144Z" fill="#B88615"/>
</svg>
