<svg width="102" height="34" viewBox="0 0 102 34" fill="none" xmlns="http://www.w3.org/2000/svg">
<path d="M17.9179 26.0743C17.9083 26.1496 17.914 26.226 17.9348 26.2991C17.9556 26.3721 17.9909 26.4403 18.0389 26.4996C18.1335 26.5752 18.2533 26.6131 18.3748 26.6059H25.4434C25.6459 26.6014 25.8427 26.6726 25.9944 26.8053C26.1413 26.9601 26.2231 27.1644 26.2231 27.3768C26.2231 27.5891 26.1413 27.7935 25.9944 27.9483C25.8427 28.081 25.6459 28.1522 25.4434 28.1476H18.115C17.7604 28.162 17.407 28.0985 17.0802 27.9616C16.8438 27.8566 16.6398 27.6915 16.489 27.4831C16.353 27.2841 16.2656 27.0566 16.2336 26.8186C16.1979 26.572 16.1799 26.3233 16.1799 26.0743V8.53046C16.18 8.28143 16.198 8.03271 16.2336 7.78618C16.2659 7.5482 16.3533 7.3208 16.489 7.12164C16.6401 6.91405 16.8441 6.74973 17.0802 6.64539C17.4073 6.50954 17.7605 6.44604 18.115 6.45932H24.9149C25.1173 6.45477 25.3141 6.52597 25.4658 6.65868C25.5433 6.73186 25.6035 6.821 25.6422 6.91976C25.6809 7.01853 25.6971 7.12451 25.6898 7.23018C25.6975 7.33589 25.6813 7.44196 25.6426 7.54077C25.6039 7.63958 25.5435 7.72869 25.4658 7.80169C25.3141 7.9344 25.1173 8.0056 24.9149 8.00105H18.3838C18.2624 7.9949 18.143 8.0327 18.0478 8.10737C17.9986 8.1657 17.9618 8.2332 17.9394 8.30588C17.9171 8.37856 17.9098 8.45493 17.9179 8.53046V26.0743ZM38.6758 16.7973C38.6831 16.903 38.6669 17.009 38.6282 17.1077C38.5895 17.2065 38.5293 17.2956 38.4518 17.3688C38.3001 17.5015 38.1034 17.5727 37.9009 17.5682H34.062V28.1742C34.0701 28.2868 34.0512 28.3996 34.0068 28.5035C33.9625 28.6075 33.8939 28.6996 33.8066 28.7723C33.6256 28.9087 33.4025 28.9792 33.175 28.9717C32.9515 28.9806 32.7321 28.9098 32.5568 28.7723C32.4732 28.6974 32.4079 28.6046 32.3659 28.5009C32.324 28.3973 32.3066 28.2855 32.315 28.1742V6.93557C32.3066 6.82425 32.324 6.7125 32.3659 6.60885C32.4079 6.5052 32.4732 6.41239 32.5568 6.33749C32.7321 6.19995 32.9515 6.12921 33.175 6.13813C33.4025 6.13063 33.6256 6.20105 33.8066 6.33749C33.8939 6.41021 33.9625 6.5023 34.0068 6.60624C34.0512 6.71018 34.0701 6.82303 34.062 6.93557V16.0176H37.9053C38.1078 16.013 38.3046 16.0842 38.4563 16.217C38.5358 16.2907 38.5975 16.3811 38.6371 16.4815C38.6766 16.582 38.6929 16.6899 38.6848 16.7973H38.6758Z" fill="#366A35"/>
<path d="M50.3942 6.4571C50.7487 6.44382 51.1018 6.50733 51.4289 6.64318C51.6653 6.74813 51.8694 6.91323 52.0202 7.12164C52.1558 7.3208 52.2432 7.5482 52.2755 7.78618C52.3112 8.03271 52.3291 8.28143 52.3293 8.53046V15.4417C52.3293 15.6907 52.3113 15.9394 52.2755 16.1859C52.2436 16.424 52.1562 16.6515 52.0202 16.8505C51.87 17.0595 51.6658 17.2247 51.4289 17.329C51.1021 17.4658 50.7487 17.5294 50.3942 17.515H44.1677C43.8131 17.5294 43.4597 17.4658 43.1329 17.329C42.896 17.2247 42.6918 17.0595 42.5416 16.8505C42.4056 16.6515 42.3182 16.424 42.2863 16.1859C42.2505 15.9394 42.2325 15.6907 42.2325 15.4417V8.53046C42.2327 8.28143 42.2507 8.03271 42.2863 7.78618C42.3186 7.5482 42.406 7.3208 42.5416 7.12164C42.6928 6.91405 42.8968 6.74973 43.1329 6.64539C43.46 6.50955 43.8132 6.44604 44.1677 6.45932L50.3942 6.4571ZM60.3117 23.1237C60.3214 23.0484 60.3156 22.972 60.2949 22.899C60.2741 22.8259 60.2387 22.7577 60.1908 22.6984C60.0956 22.6238 59.9762 22.5859 59.8548 22.5921H43.003C42.8005 22.5966 42.6038 22.5255 42.452 22.3927C42.3051 22.2379 42.2233 22.0336 42.2233 21.8212C42.2233 21.6089 42.3051 21.4046 42.452 21.2497C42.6027 21.1146 42.7996 21.041 43.003 21.0437H60.1236C60.4781 21.0304 60.8313 21.0939 61.1583 21.2298C61.398 21.3334 61.6053 21.4986 61.7586 21.7083C61.8942 21.9074 61.9816 22.1348 62.0139 22.3728C62.0496 22.6193 62.0675 22.868 62.0677 23.1171V27.8486C62.0761 27.9599 62.0586 28.0717 62.0167 28.1753C61.9748 28.279 61.9095 28.3718 61.8258 28.4467C61.6505 28.5842 61.4312 28.655 61.2076 28.646C60.9802 28.6535 60.757 28.5831 60.576 28.4467C60.4888 28.374 60.4202 28.2819 60.3758 28.1779C60.3314 28.074 60.3126 27.9611 60.3207 27.8486L60.3117 23.1237ZM50.1343 15.9733C50.2558 15.9805 50.3756 15.9426 50.4703 15.867C50.5184 15.8078 50.554 15.7396 50.5748 15.6665C50.5955 15.5935 50.6012 15.517 50.5913 15.4417V8.53046C50.6009 8.45518 50.5952 8.37874 50.5744 8.30568C50.5536 8.23263 50.5182 8.16444 50.4703 8.10516C50.3751 8.03049 50.2557 7.99268 50.1343 7.99883H44.4364C44.3151 7.99268 44.1957 8.03049 44.1005 8.10516C44.0526 8.16444 44.0172 8.23263 43.9964 8.30568C43.9756 8.37874 43.9699 8.45518 43.9795 8.53046V15.4417C43.9696 15.517 43.9753 15.5935 43.996 15.6665C44.0168 15.7396 44.0524 15.8078 44.1005 15.867C44.1952 15.9426 44.315 15.9805 44.4364 15.9733H50.1343ZM55.0797 12.2785C55.0724 12.1728 55.0886 12.0668 55.1273 11.968C55.166 11.8693 55.2262 11.7801 55.3037 11.707C55.4554 11.5742 55.6522 11.503 55.8546 11.5076H60.3162V6.93557C60.3078 6.82425 60.3253 6.7125 60.3672 6.60885C60.4091 6.5052 60.4744 6.41239 60.5581 6.33749C60.7334 6.19995 60.9527 6.12921 61.1763 6.13813C61.4037 6.13063 61.6268 6.20105 61.8079 6.33749C61.8951 6.41021 61.9637 6.5023 62.0081 6.60624C62.0524 6.71018 62.0713 6.82303 62.0632 6.93557V17.8606C62.0713 17.9731 62.0524 18.086 62.0081 18.1899C61.9637 18.2939 61.8951 18.386 61.8079 18.4587C61.6268 18.5951 61.4037 18.6655 61.1763 18.658C60.9527 18.667 60.7334 18.5962 60.5581 18.4587C60.4744 18.3838 60.4091 18.291 60.3672 18.1873C60.3253 18.0837 60.3078 17.9719 60.3162 17.8606V13.0493H55.8591C55.6566 13.0539 55.4599 12.9827 55.3081 12.85C55.2297 12.7774 55.1685 12.6885 55.1289 12.5896C55.0894 12.4908 55.0726 12.3845 55.0797 12.2785V12.2785Z" fill="#366A35"/>
<path d="M67.7745 11.0756C67.7711 10.4564 67.8898 9.84244 68.1239 9.2681C68.3552 8.70335 68.7083 8.19534 69.1587 7.77954C69.6425 7.33892 70.2085 6.99582 70.825 6.76944C71.5527 6.50889 72.3225 6.38275 73.0961 6.3973C73.8741 6.38357 74.6482 6.50966 75.3807 6.76944C76.0023 6.99365 76.5731 7.3369 77.0605 7.77954C77.512 8.19715 77.8692 8.70442 78.1087 9.2681C78.3514 9.84032 78.4748 10.4551 78.4715 11.0756V23.7816C78.475 24.4022 78.3516 25.017 78.1087 25.5892C77.8692 26.1528 77.512 26.6601 77.0605 27.0777C76.5737 27.5211 76.0027 27.8645 75.3807 28.0878C74.6482 28.3476 73.8741 28.4737 73.0961 28.46C72.3225 28.4745 71.5527 28.3484 70.825 28.0878C70.2081 27.8623 69.6419 27.5191 69.1587 27.0777C68.7083 26.6619 68.3552 26.1539 68.1239 25.5892C67.8896 25.0149 67.7709 24.4009 67.7745 23.7816V11.0756ZM69.5215 23.0373C69.5215 24.4196 69.8351 25.412 70.4622 26.0145C71.0893 26.617 71.9673 26.9182 73.0961 26.9182C74.2429 26.9182 75.1343 26.617 75.7704 26.0145C76.4065 25.412 76.7245 24.4196 76.7245 23.0373V11.8266C76.7245 10.4443 76.4065 9.45196 75.7704 8.84944C75.1343 8.24914 74.2429 7.94567 73.0961 7.94567C71.9494 7.94567 71.0804 8.24914 70.4622 8.84944C69.844 9.44974 69.5215 10.4443 69.5215 11.8266V23.0373ZM81.0338 16.5249C81.0264 16.4192 81.0427 16.3132 81.0814 16.2144C81.1201 16.1157 81.1803 16.0265 81.2577 15.9534C81.4095 15.8206 81.6062 15.7494 81.8087 15.754H86.4539V6.93557C86.4456 6.82425 86.463 6.7125 86.5049 6.60885C86.5468 6.5052 86.6121 6.41239 86.6958 6.33749C86.8711 6.19995 87.0905 6.12921 87.314 6.13813C87.5415 6.13063 87.7646 6.20105 87.9456 6.33749C88.0328 6.41021 88.1014 6.5023 88.1458 6.60624C88.1902 6.71018 88.2091 6.82303 88.2009 6.93557V28.1742C88.2091 28.2868 88.1902 28.3996 88.1458 28.5035C88.1014 28.6075 88.0328 28.6996 87.9456 28.7723C87.7646 28.9087 87.5415 28.9792 87.314 28.9717C87.0905 28.9806 86.8711 28.9098 86.6958 28.7723C86.6121 28.6974 86.5468 28.6046 86.5049 28.5009C86.463 28.3973 86.4456 28.2855 86.4539 28.1742V17.3024H81.8132C81.6107 17.3069 81.4139 17.2357 81.2622 17.103C81.1837 17.0304 81.1225 16.9415 81.083 16.8427C81.0435 16.7438 81.0267 16.6376 81.0338 16.5315V16.5249Z" fill="#366A35"/>
<path fill-rule="evenodd" clip-rule="evenodd" d="M7.2329 8.93831C6.76845 9.69191 6.47509 10.6995 6.47509 11.6627C6.47509 12.6149 6.76121 13.2927 7.16683 13.7267C7.57108 14.1593 8.13408 14.3939 8.78203 14.3939C9.42992 14.3939 9.99224 14.1594 10.3959 13.727C10.801 13.293 11.0867 12.6152 11.0867 11.6627C11.0867 10.6934 10.7937 9.68597 10.3301 8.93428C9.85412 8.1624 9.28657 7.78618 8.78203 7.78618C8.27837 7.78618 7.71011 8.16401 7.2329 8.93831ZM6.27667 8.36185C6.83702 7.45266 7.70219 6.67862 8.78203 6.67862C9.86098 6.67862 10.7257 7.44873 11.2862 8.35758C11.8591 9.28662 12.2066 10.4943 12.2066 11.6627C12.2066 12.8367 11.8506 13.8014 11.2187 14.4783C10.5854 15.1567 9.71539 15.5015 8.78203 15.5015C7.84872 15.5015 6.97828 15.1568 6.34442 14.4785C5.71192 13.8017 5.35522 12.8369 5.35522 11.6627C5.35522 10.4993 5.70356 9.29175 6.27667 8.36185Z" fill="#366A35"/>
<path fill-rule="evenodd" clip-rule="evenodd" d="M8.78427 15.054C9.09351 15.054 9.34421 15.302 9.34421 15.6078V28.3071C9.34421 28.613 9.09351 28.8609 8.78427 28.8609C8.47503 28.8609 8.22433 28.613 8.22433 28.3071V15.6078C8.22433 15.302 8.47503 15.054 8.78427 15.054Z" fill="#366A35"/>
<path fill-rule="evenodd" clip-rule="evenodd" d="M94.7954 6.03669C95.1044 6.04925 95.3445 6.30716 95.3318 6.61275L94.4359 28.1615C94.4232 28.4671 94.1625 28.7046 93.8535 28.6921C93.5445 28.6795 93.3043 28.4216 93.317 28.116L94.2129 6.56725C94.2256 6.26166 94.4864 6.02412 94.7954 6.03669Z" fill="#366A35"/>
<path fill-rule="evenodd" clip-rule="evenodd" d="M96.5703 6.03669C96.8792 6.02412 97.14 6.26166 97.1527 6.56725L98.0486 28.116C98.0613 28.4216 97.8211 28.6795 97.5122 28.6921C97.2032 28.7046 96.9424 28.4671 96.9297 28.1615L96.0338 6.61275C96.0211 6.30716 96.2613 6.04925 96.5703 6.03669Z" fill="#366A35"/>
</svg>
