<svg width="current" height="current" viewBox="0 0 29 29" fill="none" xmlns="http://www.w3.org/2000/svg">
<path fill-rule="evenodd" clip-rule="evenodd" d="M6.3351 22.516C6.48256 22.6211 6.67172 22.6484 6.84288 22.5893L11.975 20.8172L16.8282 22.5861C16.886 22.6072 16.946 22.6183 17.0059 22.6198C17.0214 22.6202 17.0369 22.62 17.0524 22.6191C17.1031 22.6162 17.1538 22.6063 17.2029 22.5893L22.5229 20.7523C22.7487 20.6744 22.9001 20.4618 22.9001 20.223V6.93999C22.9001 6.75893 22.8126 6.58903 22.6651 6.48395C22.5177 6.37886 22.3285 6.35156 22.1574 6.41066L17.0251 8.18284L12.1789 6.41645C12.1032 6.38773 12.0222 6.37575 11.9415 6.38132C11.8901 6.38486 11.8393 6.39548 11.7906 6.41297L6.47732 8.24767C6.25157 8.32562 6.1001 8.53817 6.1001 8.777V22.06C6.1001 22.2411 6.18765 22.411 6.3351 22.516ZM11.42 7.72585L7.2201 9.17608V21.2742L11.42 19.8239V7.72585ZM12.5401 19.8311V7.74019L16.46 9.16893V21.2598L12.5401 19.8311ZM17.5801 21.2742V9.17608L21.7801 7.72581V19.8239L17.5801 21.2742Z" fill="current"/>
</svg>
