<svg width="30" height="40" viewBox="0 0 30 40" fill="none" xmlns="http://www.w3.org/2000/svg">
<circle cx="15" cy="15" r="10" fill="white"/>
<path fill-rule="evenodd" clip-rule="evenodd" d="M16.1359 39.3446C19.6326 35.74 30 24.3282 30 15.7346C30 5.39779 23.6788 0 15 0C6.32124 0 0 6.09175 0 15.7346C0 24.6309 10.3414 35.8178 13.8509 39.3581C14.4906 40.0034 15.5032 39.9968 16.1359 39.3446ZM15 24.4503C20.3485 24.4503 24.6843 20.1145 24.6843 14.7659C24.6843 9.41743 20.3485 5.0816 15 5.0816C9.65146 5.0816 5.31563 9.41743 5.31563 14.7659C5.31563 20.1145 9.65146 24.4503 15 24.4503ZM12.7213 15.1573C13.717 14.7272 14.4303 13.5667 14.4303 12.2024C14.4303 10.472 13.2826 9.06927 11.8668 9.06927C10.451 9.06927 9.30331 10.472 9.30331 12.2024C9.30331 13.5666 10.0166 14.7272 11.0123 15.1573V20.7475C11.0123 21.2194 11.3949 21.602 11.8668 21.602C12.3387 21.602 12.7213 21.2194 12.7213 20.7475V15.1573ZM19.2725 9.06927C19.7444 9.06927 20.127 9.45184 20.127 9.92377V20.7475C20.127 21.2194 19.7444 21.602 19.2725 21.602C18.8006 21.602 18.418 21.2194 18.418 20.7475V9.92377C18.418 9.45184 18.8006 9.06927 19.2725 9.06927ZM17.2787 9.92377C17.2787 9.45184 16.8961 9.06927 16.4242 9.06927C15.9522 9.06927 15.5697 9.45184 15.5697 9.92377V20.7475C15.5697 21.2194 15.9522 21.602 16.4242 21.602C16.8961 21.602 17.2787 21.2194 17.2787 20.7475V9.92377Z" fill="#366A35"/>
</svg>
