<svg width="32" height="32" viewBox="0 0 32 32" fill="none" xmlns="http://www.w3.org/2000/svg">
<path d="M15.6999 6.25094C15.803 5.97234 16.197 5.97234 16.3001 6.25094L18.8011 13.0097C18.8335 13.0973 18.9026 13.1664 18.9902 13.1988L25.749 15.6998C26.0276 15.8029 26.0276 16.1969 25.749 16.3L18.9902 18.801C18.9026 18.8334 18.8335 18.9025 18.8011 18.9901L16.3001 25.7489C16.197 26.0275 15.803 26.0275 15.6999 25.7489L13.1989 18.9901C13.1665 18.9025 13.0974 18.8334 13.0098 18.801L6.25104 16.3C5.97244 16.1969 5.97244 15.8029 6.25104 15.6998L13.0098 13.1988C13.0974 13.1664 13.1665 13.0973 13.1989 13.0097L15.6999 6.25094Z" fill="#F48400"/>
</svg>
