<svg width="88" height="88" viewBox="0 0 88 88" fill="none" xmlns="http://www.w3.org/2000/svg">
<g clip-path="url(#clip0)">
<path d="M44.0021 88.0043C68.3038 88.0043 88.0043 68.3038 88.0043 44.0021C88.0043 19.7004 68.3038 0 44.0021 0C19.7004 0 0 19.7004 0 44.0021C0 68.3038 19.7004 88.0043 44.0021 88.0043Z" fill="#E8DBBD"/>
<path d="M56.6917 57.7659L43.188 60.8988C41.9155 61.1955 40.5807 61.0639 39.3907 60.5244C38.2007 59.9849 37.222 59.0676 36.6066 57.9151C36.6066 57.9151 36.6066 57.9151 36.6066 57.9151C36.2556 57.77 35.92 57.59 35.6049 57.378L24.062 49.7054C23.4101 49.2747 22.8495 48.7198 22.4121 48.0724C21.9747 47.425 21.6691 46.6978 21.5128 45.9322C21.3564 45.1667 21.3524 44.3779 21.5009 43.6109C21.6494 42.8438 21.9475 42.1135 22.3783 41.4617C22.809 40.8098 23.3639 40.2492 24.0113 39.8118C24.6587 39.3744 25.3859 39.0688 26.1514 38.9125C26.9169 38.7561 27.7057 38.7521 28.4728 38.9006C29.2399 39.0491 29.9702 39.3472 30.622 39.778L31.2827 40.2042L28.0517 30.4515C27.7952 29.7072 27.6891 28.9194 27.7395 28.1337C27.79 27.3481 27.9959 26.5802 28.3454 25.8748C28.6948 25.1693 29.1809 24.5403 29.7754 24.0242C30.3699 23.5081 31.061 23.1152 31.8086 22.8683C32.5561 22.6213 33.3452 22.5253 34.1302 22.5858C34.9151 22.6462 35.6803 22.862 36.3812 23.2204C37.0821 23.5789 37.7049 24.073 38.2133 24.6741C38.7218 25.2751 39.1058 25.9712 39.3432 26.7218L40.0678 28.9426C40.0704 28.9501 40.0753 28.9567 40.0818 28.9613C40.0883 28.9659 40.0961 28.9684 40.104 28.9684C40.112 28.9684 40.1198 28.9659 40.1262 28.9613C40.1327 28.9567 40.1376 28.9501 40.1403 28.9426L42.3696 18.2138C42.5268 17.4479 42.834 16.7206 43.2733 16.0737C43.7126 15.4269 44.2754 14.8732 44.9294 14.4446C45.5834 14.016 46.3156 13.7209 47.0841 13.5763C47.8525 13.4316 48.6419 13.4403 49.407 13.6018C52.6465 14.2795 54.6457 17.5702 53.9764 20.814L51.8835 30.9332C51.8823 30.9411 51.8836 30.9491 51.8871 30.9563C51.8907 30.9634 51.8964 30.9692 51.9034 30.973C51.9104 30.9767 51.9184 30.9782 51.9263 30.9772C51.9342 30.9762 51.9416 30.9727 51.9475 30.9673L53.1793 29.582C53.6999 28.9987 54.3303 28.5237 55.0345 28.184C55.7386 27.8444 56.5028 27.6467 57.2833 27.6024C58.0639 27.5581 58.8455 27.6679 59.5836 27.9257C60.3217 28.1834 61.0018 28.584 61.5851 29.1046C62.1683 29.6252 62.6434 30.2555 62.983 30.9597C63.3227 31.6639 63.5203 32.428 63.5646 33.2086C63.609 33.9891 63.4991 34.7707 63.2414 35.5088C62.9836 36.2469 62.583 36.927 62.0625 37.5103L54.4496 46.0354C54.4417 46.0399 54.4359 46.0474 54.4335 46.0562C54.4311 46.065 54.4323 46.0743 54.4368 46.0823C54.4413 46.0902 54.4488 46.096 54.4576 46.0984C54.4664 46.1008 54.4758 46.0996 54.4837 46.095C56.0081 45.8569 57.5655 46.2212 58.8262 47.1107C60.0869 48.0002 60.9522 49.3452 61.2391 50.8613C61.5259 52.3773 61.2117 53.9455 60.3631 55.2341C59.5144 56.5227 58.1978 57.4306 56.6917 57.7659V57.7659Z" fill="#479141"/>
<path d="M39.9527 59.8673C39.8654 59.867 39.7783 59.8584 39.6927 59.8417C39.528 59.8077 39.3717 59.7415 39.2327 59.6471C39.0936 59.5526 38.9746 59.4316 38.8823 59.291C38.7901 59.1505 38.7264 58.9931 38.6951 58.828C38.6637 58.6628 38.6652 58.4931 38.6995 58.3285L46.5042 20.6179C46.5726 20.2844 46.7707 19.9917 47.0549 19.8043C47.339 19.6168 47.686 19.5499 48.0195 19.6183C48.353 19.6867 48.6457 19.8848 48.8332 20.169C49.0206 20.4531 49.0875 20.8001 49.0191 21.1336L41.2187 58.8443C41.1593 59.1353 41.0005 59.3965 40.7694 59.5832C40.5384 59.7699 40.2497 59.8703 39.9527 59.8673V59.8673Z" fill="#3C3D3D"/>
<path d="M42.2928 48.5588C42.1199 48.5587 41.9487 48.5235 41.7897 48.4554C41.6307 48.3872 41.4872 48.2876 41.3679 48.1624C41.2514 48.0408 41.1601 47.8974 41.0992 47.7404C41.0383 47.5835 41.009 47.416 41.0129 47.2477C41.0169 47.0794 41.054 46.9135 41.1223 46.7596C41.1905 46.6057 41.2884 46.4668 41.4105 46.3508L56.6448 31.8582C56.8924 31.6259 57.2221 31.5014 57.5614 31.5122C57.9008 31.523 58.2219 31.6681 58.4542 31.9157C58.6866 32.1633 58.811 32.493 58.8002 32.8324C58.7894 33.1717 58.6443 33.4928 58.3967 33.7252L43.1667 48.2178C42.9291 48.438 42.6168 48.5599 42.2928 48.5588V48.5588Z" fill="#3C3D3D"/>
<path d="M53.3797 61.8067C52.1917 61.3024 51.2417 60.3625 50.7249 59.1798C50.2081 57.9971 50.1636 56.6615 50.6006 55.447L61.6107 24.8293C61.8436 24.1824 62.206 23.5899 62.6758 23.0879C63.1456 22.5859 63.7128 22.185 64.3428 21.9097C64.9727 21.6344 65.6523 21.4905 66.3398 21.4868C67.0273 21.4831 67.7083 21.6196 68.3412 21.8881L71.7001 23.3118C72.333 23.5803 72.9045 23.9752 73.3794 24.4723C73.8544 24.9694 74.2229 25.5582 74.4623 26.2027C74.7017 26.8471 74.8071 27.5337 74.7719 28.2203C74.7367 28.907 74.5617 29.5792 74.2576 30.1958L59.8844 59.3856C59.314 60.5431 58.3225 61.4387 57.1132 61.8888C55.9038 62.3389 54.5681 62.3096 53.3797 61.8067V61.8067Z" fill="#EA8113"/>
<path d="M72.5057 34.0193C72.3251 34.0198 72.1464 33.982 71.9814 33.9084L68.0769 32.1438C67.9238 32.0746 67.7859 31.976 67.6709 31.8536C67.5559 31.7311 67.4662 31.5872 67.4068 31.4301C67.2869 31.1127 67.2979 30.7607 67.4376 30.4515C67.5772 30.1423 67.8339 29.9013 68.1513 29.7814C68.4686 29.6615 68.8206 29.6725 69.1298 29.8122L73.0343 31.5768C73.2999 31.6979 73.5161 31.9061 73.647 32.167C73.7779 32.4279 73.8156 32.7257 73.7539 33.011C73.6922 33.2963 73.5347 33.5518 73.3076 33.7353C73.0806 33.9187 72.7976 34.0189 72.5057 34.0193Z" fill="#3C3D3D"/>
<path d="M69.8075 37.084C69.6269 37.0845 69.4482 37.0468 69.2832 36.9732L65.3788 35.2128C65.0696 35.0732 64.8285 34.8164 64.7086 34.4991C64.5887 34.1817 64.5998 33.8297 64.7394 33.5206C64.879 33.2114 65.1357 32.9703 65.4531 32.8504C65.7704 32.7305 66.1224 32.7416 66.4316 32.8812L70.3318 34.6459C70.5947 34.7681 70.8082 34.976 70.9374 35.2356C71.0665 35.4951 71.1037 35.7908 71.0427 36.0742C70.9818 36.3576 70.8264 36.6119 70.6019 36.7954C70.3775 36.9789 70.0974 37.0806 69.8075 37.084Z" fill="#3C3D3D"/>
<path d="M61.6959 41.3466C61.5153 41.3471 61.3366 41.3093 61.1716 41.2357L57.2671 39.4711C56.9579 39.3314 56.7169 39.0747 56.597 38.7574C56.4771 38.44 56.4881 38.088 56.6278 37.7788C56.7674 37.4696 57.0241 37.2286 57.3414 37.1087C57.6588 36.9888 58.0108 36.9998 58.32 37.1395L62.233 38.9127C62.4944 39.0367 62.7059 39.2458 62.8331 39.5057C62.9603 39.7655 62.9957 40.0609 62.9333 40.3434C62.871 40.6259 62.7146 40.879 62.4899 41.0612C62.2651 41.2434 61.9852 41.344 61.6959 41.3466V41.3466Z" fill="#3C3D3D"/>
<path d="M29.16 52.5485C35.0665 52.5485 39.8547 47.7603 39.8547 41.8538C39.8547 35.9473 35.0665 31.1591 29.16 31.1591C23.2535 31.1591 18.4653 35.9473 18.4653 41.8538C18.4653 47.7603 23.2535 52.5485 29.16 52.5485Z" fill="#D84330"/>
<path d="M32.033 30.1958L30.8736 32.5828C30.8356 32.6681 30.8267 32.7636 30.8483 32.8544C30.8698 32.9453 30.9207 33.0266 30.9929 33.0858L33.1242 34.6928C33.1824 34.7453 33.225 34.813 33.2473 34.8883C33.2696 34.9635 33.2706 35.0435 33.2503 35.1193C33.2301 35.1951 33.1892 35.2639 33.1324 35.318C33.0755 35.3721 33.0048 35.4094 32.9281 35.4259L28.7295 35.9459C28.6351 35.9597 28.548 36.0047 28.4823 36.0738L25.8779 38.8445C25.8307 38.889 25.774 38.9222 25.712 38.9415C25.6501 38.9608 25.5845 38.9657 25.5204 38.9559C25.4562 38.946 25.3952 38.9216 25.3419 38.8846C25.2886 38.8475 25.2445 38.7988 25.2129 38.7422L24.0194 36.3083C23.987 36.2448 23.9392 36.1905 23.8803 36.1503C23.8215 36.1101 23.7535 36.0852 23.6827 36.0781L20.0893 35.8053C20.0079 35.7907 19.9324 35.7528 19.8721 35.696C19.8118 35.6393 19.7694 35.5662 19.75 35.4858C19.7305 35.4053 19.7349 35.3209 19.7626 35.2429C19.7904 35.1649 19.8402 35.0967 19.906 35.0465L22.9793 33.2009C23.0405 33.1646 23.0908 33.1127 23.1253 33.0505C23.1598 32.9884 23.177 32.9181 23.1754 32.8471L23.1456 30.1361C23.148 30.0709 23.1653 30.0071 23.1963 29.9497C23.2272 29.8922 23.2709 29.8426 23.324 29.8048C23.3772 29.7669 23.4383 29.7417 23.5027 29.7311C23.5671 29.7206 23.633 29.725 23.6954 29.744L27.2632 31.0227C27.3524 31.0568 27.451 31.0568 27.5402 31.0227L31.5428 29.6331C31.6173 29.6171 31.6947 29.6213 31.767 29.6454C31.8393 29.6694 31.9038 29.7124 31.9539 29.7698C32.0039 29.8273 32.0376 29.8971 32.0516 29.972C32.0655 30.0469 32.059 30.1242 32.033 30.1958Z" fill="#479742"/>
<path d="M69.7265 44.8035H16.5685C16.657 51.7944 19.4963 58.4689 24.4712 63.3812C29.4461 68.2935 36.156 71.048 43.1475 71.048C50.139 71.048 56.8489 68.2935 61.8238 63.3812C66.7988 58.4689 69.638 51.7944 69.7265 44.8035V44.8035Z" fill="#A6CFDA"/>
<path d="M43.1497 72.6634C35.7632 72.6555 28.6815 69.7177 23.4584 64.4947C18.2354 59.2717 15.2976 52.19 15.2897 44.8035C15.2897 44.4643 15.4245 44.1391 15.6643 43.8993C15.9041 43.6595 16.2293 43.5247 16.5685 43.5247H69.7265C70.0657 43.5247 70.391 43.6595 70.6308 43.8993C70.8706 44.1391 71.0053 44.4643 71.0053 44.8035C70.9974 52.1892 68.0602 59.2703 62.8381 64.4932C57.616 69.7161 50.5354 72.6544 43.1497 72.6634V72.6634ZM17.9027 46.0823C18.2288 52.5634 21.0331 58.6714 25.7357 63.1433C30.4382 67.6152 36.6795 70.109 43.1688 70.109C49.6582 70.109 55.8994 67.6152 60.602 63.1433C65.3046 58.6714 68.1089 52.5634 68.435 46.0823H17.9027Z" fill="#3C3D3D"/>
</g>
<defs>
<clipPath id="clip0">
<rect width="88" height="88" fill="white"/>
</clipPath>
</defs>
</svg>
