<svg width="68" height="68" viewBox="0 0 68 68" fill="none" xmlns="http://www.w3.org/2000/svg">
<g filter="url(#filter0_d)">
<path d="M58 31C58 44.2548 47.2548 55 34 55C20.7452 55 10 44.2548 10 31C10 17.7452 20.7452 7 34 7C47.2548 7 58 17.7452 58 31Z" fill="#FFFCF5"/>
<path fill-rule="evenodd" clip-rule="evenodd" d="M26.3717 32.0182C25.8094 31.4559 25.8094 30.5441 26.3717 29.9818L37.2329 19.1206C37.7953 18.5583 38.707 18.5583 39.2694 19.1206C39.8317 19.683 39.8317 20.5947 39.2694 21.1571L29.4265 31L39.2694 40.8429C39.8317 41.4053 39.8317 42.3171 39.2694 42.8794C38.707 43.4418 37.7953 43.4418 37.2329 42.8794L26.3717 32.0182Z" fill="#B88615"/>
</g>
<defs>
<filter id="filter0_d" x="0" y="0" width="68" height="68" filterUnits="userSpaceOnUse" color-interpolation-filters="sRGB">
<feFlood flood-opacity="0" result="BackgroundImageFix"/>
<feColorMatrix in="SourceAlpha" type="matrix" values="0 0 0 0 0 0 0 0 0 0 0 0 0 0 0 0 0 0 127 0"/>
<feOffset dy="3"/>
<feGaussianBlur stdDeviation="5"/>
<feColorMatrix type="matrix" values="0 0 0 0 0.309804 0 0 0 0 0.243137 0 0 0 0 0.168627 0 0 0 0.5 0"/>
<feBlend mode="normal" in2="BackgroundImageFix" result="effect1_dropShadow"/>
<feBlend mode="normal" in="SourceGraphic" in2="effect1_dropShadow" result="shape"/>
</filter>
</defs>
</svg>
