<svg width="48" height="48" viewBox="0 0 48 48" fill="none" xmlns="http://www.w3.org/2000/svg">
<path fill-rule="evenodd" clip-rule="evenodd" d="M10.003 37.7418C10.2557 37.9219 10.58 37.9687 10.8734 37.8674L19.6714 34.8295L27.9848 37.8596C28.0135 37.8703 28.0426 37.8796 28.0721 37.8874C28.2346 37.9309 28.4074 37.9313 28.5728 37.8861C28.5955 37.88 28.618 37.8729 28.6402 37.8651L37.7534 34.7183C38.1404 34.5846 38.4 34.2203 38.4 33.8109V11.04C38.4 10.7296 38.25 10.4384 37.9972 10.2582C37.7444 10.0781 37.4201 10.0313 37.1267 10.1326L28.3287 13.1705L20.0137 10.1398C19.984 10.1288 19.9538 10.1193 19.9232 10.1113C19.8477 10.0915 19.7707 10.0812 19.6939 10.0801C19.6083 10.0789 19.5221 10.0891 19.4378 10.1111C19.4124 10.1177 19.3872 10.1254 19.3623 10.1341L10.2468 13.2817C9.85976 13.4154 9.6001 13.7797 9.6001 14.1892V36.96C9.6001 37.2704 9.75018 37.5617 10.003 37.7418ZM18.7201 12.3871L11.5201 14.8733V35.6129L18.7201 33.1267V12.3871ZM20.6401 12.4117V33.139L27.36 35.5883V14.861L20.6401 12.4117ZM29.2801 35.6129V14.8733L36.48 12.3871V33.1267L29.2801 35.6129Z" fill="#FFFBF2"/>
</svg>
